<svg data-v-423bf9ae="" xmlns="http://www.w3.org/2000/svg" viewBox="0 0 593 90" class="iconLeft"><!----><!----><!----><g data-v-423bf9ae="" id="3942b922-a143-44d1-a33f-6d214aab8288" fill="white" transform="matrix(4.83605233626814,0,0,4.83605233626814,374.26341566141224,12.7168759007887)"><path d="M2.56 7.89Q2.45 7.90 1.55 7.84L1.55 7.84Q1.96 6.63 2.42 5.57L2.42 5.57Q2.58 5.18 3.13 3.95L3.13 3.95Q3.11 4.61 2.93 7.85L2.93 7.85Q2.75 7.87 2.56 7.89L2.56 7.89ZM4.37 1.18Q4.18 1.09 3.80 1.16L3.80 1.16Q3.16 1.27 2.95 1.55L2.95 1.55Q2.75 1.80 1.97 3.58L1.97 3.58Q1.83 3.90 1.47 4.70L1.47 4.70Q1.16 5.42 0.98 5.83L0.98 5.83Q0.56 6.79 0.18 7.86L0.18 7.86Q-0.74 7.97-1.39 8.37L-1.39 8.37Q-1.57 8.48-1.54 8.58L-1.54 8.58Q-1.51 8.67-1.31 8.68L-1.31 8.68Q-0.79 8.70-0.31 8.43L-0.31 8.43Q-0.17 8.41-0.12 8.41L-0.12 8.41Q-0.06 8.41 0 8.41L0 8.41Q-0.32 9.39-0.64 10.53L-0.64 10.53Q-0.71 10.79-0.05 10.67L-0.05 10.67Q0.25 10.62 0.50 10.49L0.50 10.49Q0.77 10.37 0.80 10.27L0.80 10.27Q1.07 9.32 1.34 8.48L1.34 8.48Q1.63 8.50 1.83 8.47L1.83 8.47Q2.54 8.39 2.89 8.46L2.89 8.46Q2.78 10.55 2.78 12.02L2.78 12.02Q2.78 12.10 3.01 12.11L3.01 12.11Q3.23 12.12 3.51 12.06L3.51 12.06Q4.25 11.91 4.25 11.62L4.25 11.62Q4.25 9.90 4.45 6.45L4.45 6.45Q4.65 3.00 4.65 1.27L4.65 1.27Q4.65 1.18 4.37 1.18L4.37 1.18ZM10.91 1.54Q10.61 1.59 10.36 1.71L10.36 1.71Q10.07 1.85 10.06 1.93L10.06 1.93Q9.80 3.23 8.56 4.91L8.56 4.91Q7.89 5.82 6.89 6.87L6.89 6.87Q6.99 6.31 7.03 6.09L7.03 6.09Q7.55 3.42 8.37 2.26L8.37 2.26Q8.47 2.12 8.16 2.11L8.16 2.11Q7.94 2.09 7.79 2.12L7.79 2.12Q7.13 2.24 6.93 2.52L6.93 2.52Q6.11 3.68 5.58 6.43L5.58 6.43Q5.19 8.43 5.18 8.47L5.18 8.47Q4.70 10.61 4.69 10.85L4.69 10.85Q4.68 10.92 4.91 10.93L4.91 10.93Q5.12 10.94 5.40 10.88L5.40 10.88Q6.13 10.75 6.15 10.45L6.15 10.45Q6.17 10.17 6.62 8.22L6.62 8.22Q6.95 8.85 7.21 9.69L7.21 9.69Q7.62 10.97 7.60 12.02L7.60 12.02Q7.60 12.11 7.83 12.11L7.83 12.11Q8.05 12.13 8.33 12.07L8.33 12.07Q9.06 11.92 9.06 11.63L9.06 11.63Q9.08 10.62 8.67 9.30L8.67 9.30Q8.29 8.07 7.72 7.25L7.72 7.25Q9.05 5.91 9.95 4.72L9.95 4.72Q11.23 3.01 11.49 1.67L11.49 1.67Q11.55 1.42 10.91 1.54L10.91 1.54ZM15.05 3.48Q15.00 1.70 14.16 1.01L14.16 1.01Q13.69 0.64 12.80 0.68L12.80 0.68Q11.80 0.72 10.55 1.40L10.55 1.40Q10.36 1.50 10.40 1.60L10.40 1.60Q10.43 1.70 10.63 1.71L10.63 1.71Q11.13 1.72 11.66 1.44L11.66 1.44Q11.68 1.43 11.70 1.42L11.70 1.42Q11.74 1.39 11.82 1.35L11.82 1.35Q11.86 1.34 11.94 1.31L11.94 1.31Q11.96 1.29 12.07 1.26L12.07 1.26L12.08 1.26Q12.09 1.25 12.09 1.26L12.09 1.26Q12.09 1.25 12.11 1.25L12.11 1.25Q12.15 1.25 12.19 1.26L12.19 1.26Q12.20 1.26 12.22 1.26L12.22 1.26Q12.26 1.26 12.26 1.26L12.26 1.26Q12.35 1.28 12.45 1.31L12.45 1.31Q12.46 1.31 12.46 1.31L12.46 1.31Q12.46 1.31 12.46 1.31L12.46 1.31Q12.49 1.33 12.54 1.35L12.54 1.35Q12.59 1.37 12.67 1.43L12.67 1.43Q12.80 1.51 12.93 1.65L12.93 1.65Q13.13 1.85 13.29 2.23L13.29 2.23Q13.88 3.66 13.35 6.11L13.35 6.11Q13.00 7.70 12.29 8.97L12.29 8.97Q11.94 9.60 11.53 10.03L11.53 10.03Q11.35 10.22 11.14 10.39L11.14 10.39Q12.23 5.68 12.69 1.78L12.69 1.78Q12.70 1.71 12.48 1.70L12.48 1.70Q12.26 1.69 11.99 1.74L11.99 1.74Q11.27 1.87 11.23 2.17L11.23 2.17Q10.76 6.19 9.58 11.16L9.58 11.16Q9.52 11.42 10.17 11.30L10.17 11.30Q10.47 11.25 10.72 11.12L10.72 11.12Q10.92 11.03 10.98 10.97L10.98 10.97Q11.25 10.93 11.63 10.77L11.63 10.77Q13.19 10.12 14.18 7.78L14.18 7.78Q15.09 5.63 15.05 3.48L15.05 3.48ZM18.52 5.31Q18.37 6.24 17.47 7.18L17.47 7.18Q17.28 7.38 17.04 7.58L17.04 7.58Q16.98 7.63 16.92 7.68L16.92 7.68Q16.70 7.59 16.45 7.58L16.45 7.58Q17.01 4.74 17.15 2.66L17.15 2.66Q17.42 2.80 17.66 2.99L17.66 2.99Q18.17 3.39 18.40 4.03L18.40 4.03Q18.63 4.65 18.52 5.31L18.52 5.31ZM15.54 2.40Q15.54 2.40 15.56 2.39L15.56 2.39Q15.55 2.40 15.54 2.40L15.54 2.40ZM20.48 11.42Q19.75 10.88 18.22 8.99L18.22 8.99Q17.55 8.17 17.43 8.05L17.43 8.05Q17.89 7.84 18.32 7.50L18.32 7.50Q19.52 6.56 19.88 5.41L19.88 5.41Q20.13 4.60 19.92 3.84L19.92 3.84Q19.71 3.07 19.09 2.53L19.09 2.53Q17.84 1.46 15.77 1.88L15.77 1.88Q15.64 1.91 15.44 1.96L15.44 1.96Q14.70 2.14 14.77 2.37L14.77 2.37Q14.83 2.58 15.54 2.40L15.54 2.40Q15.61 2.39 15.65 2.38L15.65 2.38Q15.70 2.37 15.73 2.37L15.73 2.37Q15.61 5.11 14.38 10.79L14.38 10.79Q14.32 11.04 14.96 10.92L14.96 10.92Q15.26 10.87 15.52 10.75L15.52 10.75Q15.80 10.62 15.82 10.53L15.82 10.53Q16.11 9.17 16.21 8.72L16.21 8.72Q16.21 8.72 16.21 8.72L16.21 8.72Q16.22 8.72 16.22 8.72L16.22 8.72Q16.33 8.85 17.01 9.70L17.01 9.70Q18.33 11.34 19.10 11.92L19.10 11.92Q19.33 12.09 20.04 11.83L20.04 11.83Q20.23 11.76 20.37 11.67L20.37 11.67Q20.62 11.52 20.48 11.42L20.48 11.42ZM21.36 7.05Q21.44 6.66 21.53 6.31L21.53 6.31Q21.72 5.80 21.99 5.24L21.99 5.24Q22.12 4.99 22.29 4.76L22.29 4.76Q22.34 4.68 22.42 4.59L22.42 4.59Q22.40 4.61 22.44 4.57L22.44 4.57Q22.47 4.59 22.51 4.61L22.51 4.61Q22.78 4.82 22.85 5.46L22.85 5.46Q22.92 6.01 22.67 6.95L22.67 6.95Q21.88 6.97 21.36 7.05L21.36 7.05ZM21.12 10.48Q21.12 10.48 21.12 10.48L21.12 10.48Q21.12 10.48 21.10 10.49L21.10 10.49Q21.12 10.49 21.12 10.48L21.12 10.48ZM22.62 4.42L22.62 4.42Q22.63 4.42 22.63 4.41L22.63 4.41Q22.63 4.42 22.62 4.42L22.62 4.42ZM24.31 5.11Q24.27 4.50 23.93 4.17L23.93 4.17Q23.56 3.80 22.59 3.98L22.59 3.98Q21.68 4.14 21.14 4.68L21.14 4.68Q20.77 5.04 20.47 5.69L20.47 5.69Q20.02 6.49 19.78 8.04L19.78 8.04Q19.65 8.93 19.65 9.63L19.65 9.63Q19.65 10.77 20.36 10.94L20.36 10.94Q20.83 11.06 21.66 10.78L21.66 10.78Q22.16 10.62 22.63 10.23L22.63 10.23Q23.43 9.57 23.58 8.68L23.58 8.68Q23.63 8.44 23.00 8.54L23.00 8.54Q22.70 8.60 22.45 8.72L22.45 8.72Q22.16 8.85 22.15 8.94L22.15 8.94Q22.05 9.50 21.63 10.04L21.63 10.04Q21.53 10.15 21.38 10.28L21.38 10.28Q21.25 10.17 21.17 9.85L21.17 9.85Q21.08 9.51 21.12 8.76L21.12 8.76Q21.16 8.08 21.27 7.53L21.27 7.53Q21.57 7.50 22.11 7.50L22.11 7.50Q22.80 7.51 22.95 7.50L22.95 7.50Q23.18 7.49 23.52 7.38L23.52 7.38Q23.93 7.22 23.98 7.08L23.98 7.08Q24.38 5.92 24.31 5.11L24.31 5.11ZM29.26 4.50Q29.20 4.33 28.67 4.44L28.67 4.44Q27.47 4.66 26.65 5.45L26.65 5.45Q26.46 5.63 26.29 5.84L26.29 5.84Q26.52 4.81 26.64 4.05L26.64 4.05Q26.65 3.92 26.27 3.96L26.27 3.96Q26.02 3.98 25.85 4.03L25.85 4.03Q25.21 4.20 25.18 4.44L25.18 4.44Q25.05 5.31 24.49 7.64L24.49 7.64Q24.00 9.64 23.91 10.86L23.91 10.86Q23.90 11.04 24.59 10.89L24.59 10.89Q25.29 10.75 25.36 10.53L25.36 10.53Q26.22 8.17 26.69 7.23L26.69 7.23Q27.19 6.24 27.67 5.65L27.67 5.65Q27.79 5.50 27.95 5.36L27.95 5.36Q28.16 6.30 27.76 8.51L27.76 8.51Q27.21 11.60 26.90 12.71L26.90 12.71Q26.83 12.96 27.49 12.84L27.49 12.84Q27.79 12.78 28.04 12.67L28.04 12.67Q28.32 12.54 28.34 12.45L28.34 12.45Q28.65 11.34 29.22 8.18L29.22 8.18Q29.42 7.02 29.47 6.25L29.47 6.25Q29.53 5.17 29.26 4.50L29.26 4.50ZM33.52 4.08Q32.97 4.06 32.20 4.06L32.20 4.06Q32.47 3.21 32.85 2.17L32.85 2.17Q32.95 1.92 32.27 2.04L32.27 2.04Q31.51 2.18 31.41 2.44L31.41 2.44Q31.09 3.32 30.84 4.08L30.84 4.08Q30.64 4.08 30.49 4.08L30.49 4.08Q29.90 4.08 29.46 4.36L29.46 4.36Q29.28 4.47 29.30 4.57L29.30 4.57Q29.33 4.67 29.54 4.67L29.54 4.67Q29.85 4.67 30.67 4.66L30.67 4.66Q30.34 5.76 30.16 6.75L30.16 6.75Q30.10 7.12 30.01 7.70L30.01 7.70Q29.90 8.47 29.87 8.65L29.87 8.65Q29.70 9.73 29.99 10.40L29.99 10.40Q30.26 11.02 30.83 11.02L30.83 11.02Q31.86 11.01 32.51 10.36L32.51 10.36Q33.37 9.47 33.52 8.22L33.52 8.22Q33.53 8.16 33.30 8.15L33.30 8.15Q33.09 8.13 32.81 8.19L32.81 8.19Q32.09 8.32 32.05 8.61L32.05 8.61Q31.97 9.32 31.47 10.09L31.47 10.09Q31.32 9.79 31.27 9.34L31.27 9.34Q31.22 8.91 31.41 7.82L31.41 7.82Q31.44 7.63 31.55 6.88L31.55 6.88Q31.64 6.30 31.72 5.93L31.72 5.93Q31.85 5.32 32.03 4.66L32.03 4.66Q32.34 4.66 32.57 4.67L32.57 4.67Q33.11 4.70 33.60 4.40L33.60 4.40Q33.78 4.29 33.75 4.19L33.75 4.19Q33.72 4.09 33.52 4.08L33.52 4.08ZM35.36 9.01Q34.90 9.63 34.78 9.78L34.78 9.78Q34.74 9.69 34.71 9.60L34.71 9.60Q34.49 8.99 34.64 7.95L34.64 7.95Q34.75 7.14 35.16 6.16L35.16 6.16Q35.31 5.80 35.51 5.44L35.51 5.44Q35.64 5.22 35.81 5.04L35.81 5.04Q35.97 4.88 36.21 4.70L36.21 4.70Q36.22 4.69 36.22 4.68L36.22 4.68Q36.24 4.68 36.26 4.66L36.26 4.66Q36.31 4.63 36.38 4.58L36.38 4.58Q36.38 4.58 36.39 4.57L36.39 4.57Q36.59 4.74 36.56 5.37L36.56 5.37Q36.55 5.48 36.98 5.44L36.98 5.44Q36.87 5.98 36.65 6.88L36.65 6.88Q36.28 7.77 35.36 9.01L35.36 9.01ZM38.48 4.85Q38.48 4.72 38.02 4.77L38.02 4.77Q38.00 4.17 37.63 4.01L37.63 4.01Q37.05 3.75 36.02 4.17L36.02 4.17Q34.60 4.74 34.01 5.81L34.01 5.81Q33.07 7.56 33.13 9.26L33.13 9.26Q33.15 10.25 33.64 10.56L33.64 10.56Q33.87 10.71 34.47 10.63L34.47 10.63Q35.03 10.55 35.50 10.22L35.50 10.22Q35.77 10.04 36.04 9.75L36.04 9.75Q35.96 10.31 35.92 10.81L35.92 10.81Q35.92 10.88 36.14 10.90L36.14 10.90Q36.35 10.90 36.63 10.85L36.63 10.85Q37.36 10.71 37.38 10.42L37.38 10.42Q37.46 9.17 38.08 6.64L38.08 6.64Q38.45 5.73 38.48 4.85L38.48 4.85ZM40.07 0.91Q39.36 2.82 38.79 5.84L38.79 5.84Q37.88 10.69 37.85 10.86L37.85 10.86Q37.80 11.10 38.44 10.99L38.44 10.99Q38.74 10.93 38.99 10.81L38.99 10.81Q39.27 10.68 39.29 10.60L39.29 10.60Q41.58 0.48 41.51 0.65L41.51 0.65Q41.61 0.39 40.93 0.51L40.93 0.51Q40.17 0.65 40.07 0.91L40.07 0.91ZM44.69 6.07Q45.25 5.29 45.22 4.73L45.22 4.73Q45.21 4.34 44.77 4.14L44.77 4.14Q44.45 3.99 44.00 3.97L44.00 3.97Q43.03 3.93 42.27 4.44L42.27 4.44Q41.43 4.98 41.34 5.89L41.34 5.89Q41.27 6.45 41.70 7.12L41.70 7.12Q41.84 7.33 42.10 7.66L42.10 7.66Q42.42 8.05 42.50 8.17L42.50 8.17Q43.61 9.73 42.83 10.41L42.83 10.41Q42.75 10.48 42.63 10.53L42.63 10.53Q42.73 10.49 42.85 10.47L42.85 10.47Q42.92 10.45 42.83 10.45L42.83 10.45Q42.55 10.43 42.20 10.16L42.20 10.16Q41.86 9.91 41.80 9.52L41.80 9.52Q41.74 9.15 41.95 8.79L41.95 8.79Q42.03 8.65 41.73 8.63L41.73 8.63Q41.54 8.63 41.37 8.66L41.37 8.66Q40.67 8.78 40.51 9.05L40.51 9.05Q40.08 9.79 40.57 10.40L40.57 10.40Q41.03 10.98 41.94 11.04L41.94 11.04Q43.06 11.12 44.11 10.33L44.11 10.33Q44.68 9.90 44.64 9.21L44.64 9.21Q44.60 8.74 44.13 8.02L44.13 8.02Q44.16 8.07 43.29 6.88L43.29 6.88Q42.84 6.26 42.79 5.78L42.79 5.78Q42.72 5.07 43.24 4.58L43.24 4.58Q43.29 4.53 43.30 4.52L43.30 4.52Q43.35 4.48 43.35 4.48L43.35 4.48Q43.37 4.47 43.39 4.46L43.39 4.46Q43.25 4.53 43.10 4.55L43.10 4.55Q42.96 4.57 43.09 4.55L43.09 4.55Q42.99 4.56 43.10 4.56L43.10 4.56Q43.54 4.58 43.71 4.93L43.71 4.93Q43.93 5.38 43.25 6.33L43.25 6.33Q43.16 6.47 43.47 6.48L43.47 6.48Q43.69 6.49 43.83 6.47L43.83 6.47Q44.50 6.34 44.69 6.07L44.69 6.07Z"></path></g><!----><g data-v-423bf9ae="" id="c348df78-efc2-4d9d-9f89-e02837f0aa76" transform="matrix(3.527550013456535,0,0,3.527550013456535,-2.2629122332071177,-145.67732910076853)" stroke="none" fill="white"><path d="M71.9 59.185a7.743 7.743 0 1115.486 0 7.743 7.743 0 01-15.486 0zm2.844 0a4.898 4.898 0 109.798-.002 4.898 4.898 0 00-9.798.002zm9.668 0a4.769 4.769 0 01-9.496.648c.41 2.174 2.361 3.818 4.707 3.818 2.575 0 4.674-1.981 4.784-4.466h.005zm-.848-1.846a4.334 4.334 0 11-7.877.071 4.23 4.23 0 017.877-.071zm-3.921-2.38a4.225 4.225 0 10.002 8.45 4.225 4.225 0 00-.002-8.45zm-2.266 4.524l.95.152a1.35 1.35 0 001.527.91l.576.763c.044.075.123.109.181.076l.322-.18c.06-.033.072-.117.033-.192l-.344-.896a1.354 1.354 0 00.023-1.78l.373-.881c.045-.073.032-.159-.024-.194l-.315-.188c-.058-.034-.142-.004-.184.068l-.605.744a1.357 1.357 0 00-1.553.871l-.95.117c-.085-.001-.154.051-.154.117l-.007.37c0 .067.066.122.151.123zm4.727-.209a2.478 2.478 0 01-.42 1.295l.821.557c.36-.532.569-1.159.593-1.815l-.994-.037zm-3.066-3.092l.333.71c.045.108.07.156.154.156h.233c.085 0 .109-.048.154-.156l.331-.71a.152.152 0 00-.155-.153h-.895a.153.153 0 00-.155.153zm-2.436 2.647l.622-.075a.374.374 0 01.153-.037l.155-.019c.021-.014.032-.034.042-.064l.072-.221c.027-.081-.012-.119-.099-.195l-.574-.535a.156.156 0 00-.196.1l-.275.852a.151.151 0 00.1.194zm1.764 3.138l.148-.769c.027-.114.036-.167-.034-.218l-.188-.137c-.068-.051-.115-.025-.217.035l-.686.38a.157.157 0 00.034.217l.725.526a.154.154 0 00.218-.034zm3.53-.708l-.687-.38c-.066-.039-.108-.063-.151-.062l.051.132c.104.208-.069.426-.285.529l.097.488a.154.154 0 00.217.035l.724-.526a.157.157 0 00.034-.216zm.416-3.576l-.574.535c-.089.076-.126.114-.1.195l.073.221c.024.082.08.091.195.101l.778.095a.154.154 0 00.1-.195l-.277-.851a.153.153 0 00-.195-.101zm-1.827-.81l.068.027c.083-.021.192.006.349.088.223.107.312.205.32.312.135.112.256.237.363.374l.783-.61a3.45 3.45 0 00-1.545-1.123l-.338.932zm-2.786.8a2.498 2.498 0 011.104-.8l-.338-.934a3.477 3.477 0 00-1.548 1.121l.782.613zm-.099 2.894a2.458 2.458 0 01-.387-.973.262.262 0 01-.142-.236l-.001-.082-.884.031c.023.64.223 1.272.59 1.816l.824-.556zm2.721.991a2.453 2.453 0 01-1.359-.002l-.276.955a3.454 3.454 0 001.91.002l-.275-.955zm-4.353-2.373c0-.358.052-.703.146-1.031l.206.036c.108.021.159.029.167.004l.022-.069c.008-.025-.037-.047-.138-.095l-.188-.091a3.678 3.678 0 013.346-2.426l.032.204c.013.111.021.16.048.16h.072c.026 0 .032-.049.048-.16l.03-.204a3.675 3.675 0 013.342 2.432l-.187.09c-.103.048-.146.071-.139.097l.023.069c.008.026.059.018.167-.004l.203-.035a3.665 3.665 0 01-1.281 3.927l-.144-.147c-.076-.082-.111-.116-.134-.102l-.058.043c-.022.016.001.061.055.159l.097.183a3.67 3.67 0 01-2.063.633 3.658 3.658 0 01-2.069-.636l.098-.184c.054-.099.076-.144.054-.158l-.058-.043c-.021-.017-.058.019-.135.101l-.144.146a3.666 3.666 0 01-1.418-2.899zm3.29-.708a.814.814 0 11.764 1.438.814.814 0 01-.764-1.438zm-66.405.708a7.743 7.743 0 1115.484 0 7.743 7.743 0 01-15.484 0zm2.954 0a4.896 4.896 0 004.898 4.897 4.898 4.898 0 10-4.898-4.897zm9.668 0a4.769 4.769 0 01-9.495.648c.41 2.174 2.362 3.818 4.708 3.818 2.574 0 4.673-1.981 4.782-4.466h.005zm-8.724-1.776a4.23 4.23 0 017.875-.071 4.334 4.334 0 11-7.875.071zm3.954-2.45a4.225 4.225 0 000 8.45c2.333 0 4.223-1.891 4.223-4.224s-1.889-4.226-4.223-4.226zm-3.673 4.226c0-.358.051-.703.146-1.031l.205.036c.11.021.16.029.168.004l.022-.069c.008-.025-.036-.047-.137-.095l-.186-.091a3.675 3.675 0 013.346-2.426l.03.204c.014.111.022.16.047.16h.074c.026 0 .033-.049.048-.16l.03-.204a3.673 3.673 0 013.341 2.432l-.187.09c-.101.048-.146.071-.137.097l.022.069c.008.026.058.018.167-.004l.206-.035a3.667 3.667 0 01-1.282 3.927l-.144-.147c-.076-.082-.111-.116-.133-.102l-.059.043c-.022.016.001.061.055.159l.097.183a3.665 3.665 0 01-2.064.633 3.655 3.655 0 01-2.068-.636l.097-.184c.053-.099.076-.144.054-.158l-.058-.043c-.023-.017-.058.019-.134.101l-.143.146a3.653 3.653 0 01-1.423-2.899zm4.353 2.373a2.46 2.46 0 01-1.361-.002l-.275.955c.618.178 1.28.183 1.911.002l-.275-.955zm-2.721-.991a2.447 2.447 0 01-.42-1.295l-.992.035a3.46 3.46 0 00.587 1.816l.825-.556zm.1-2.894c.102-.13.215-.248.337-.354.015-.106.097-.206.278-.303.184-.106.303-.138.396-.108l.092-.035-.338-.934a3.48 3.48 0 00-1.549 1.121l.784.613zm2.785-.8c.438.161.819.441 1.1.802l.784-.61c-.396-.506-.93-.9-1.545-1.123l-.339.931zm1.826.81l-.573.535c-.089.076-.126.114-.101.195l.073.221c.008.028.02.047.036.061l.135.017a.286.286 0 01.135.037l.667.081a.156.156 0 00.101-.195l-.277-.851a.155.155 0 00-.196-.101zm-.417 3.576l-.686-.38c-.101-.061-.147-.086-.217-.035l-.188.137c-.07.051-.062.105-.035.218l.149.769a.154.154 0 00.217.035l.725-.526a.156.156 0 00.035-.218zm-3.529.708l.098-.499c-.204-.103-.441-.235-.303-.51l.053-.141a.328.328 0 00-.137.062l-.685.38a.155.155 0 00.033.217l.725.526a.153.153 0 00.216-.035zm-1.765-3.138l.778-.095c.117-.01.17-.019.197-.101l.071-.221c.026-.081-.013-.119-.1-.195l-.574-.535a.157.157 0 00-.196.1l-.276.852a.153.153 0 00.1.195zm2.438-2.647l.333.71c.046.108.068.156.155.156h.232c.084 0 .109-.048.154-.156l.332-.71a.153.153 0 00-.155-.153h-.895a.154.154 0 00-.156.153zm3.041 3.372a2.5 2.5 0 01-.396 1.016l.823.557a3.452 3.452 0 00.591-1.815l-.89-.032a.484.484 0 01-.128.274zm-3.244 1.764l.58-.768c.309.054.637 0 .927-.174.294-.176.497-.445.592-.748l.947-.151c.084 0 .151-.057.15-.124l-.006-.369c-.002-.065-.072-.119-.155-.117l-.954-.118a1.355 1.355 0 00-1.559-.857l-.604-.742c-.044-.073-.125-.104-.182-.069l-.316.19c-.059.035-.069.12-.026.193l.374.886a1.353 1.353 0 00.038 1.776l-.342.896c-.041.074-.027.159.032.193l.324.179c.059.033.138-.002.18-.076zm-.007-2.133a.813.813 0 111.626-.002.813.813 0 01-1.626.002zm-17.837-.578c-.581-.6-.991-1.21-1.187-1.784l.085.01c.378.038.747.059 1.081.114a4.43 4.43 0 00.612 1.491c.285.023.647.039 1.111.043a.874.874 0 01.031.1s.04.11-.068.11c-.8-.003-1.314-.037-1.665-.084zm93.72-8.853c.533-.024 1.053-.034 1.374-.009.952.072 1.521.074 1.757.366a.594.594 0 00-.23.002c-.385.061-.684.16-1.089.064l-1.812-.423zM55.47 62.807c.509-.009 3.531.093 4.891.187.535.038 1.172.262 1.172.262s.35.14.691-.327c.78-1.074 1.017-1.462 1.426-2.333.305-.647.391-.885.019-.938-.371-.051-.294-.024-.294-.024l-2.1 2.871-5.805.302zm15.271-3.54l-.131 4.315h-8.83l-.767-.247h-2.715s-27.646.247-27.974.247c-.329 0-.442-.165-.442-.165v-3.664c4.883-.056 36.783-.437 40.859-.486zm-7.041-8.95c-.071.192-.166.429-.29.719-.527 1.247-1.794 4.207-4.31 8.214l-22.375.269c-.017-.822-.131-7.421.502-9.089l.009-.021c8.527.464 26.203-.085 26.203-.085l.261-.007zm5.571 8.812l-9.985.119c2.486-3.973 3.742-6.91 4.27-8.15.135-.318.237-.578.315-.792.129-.024.627-.114 2.556-.409a78.007 78.007 0 011.443-.209c.046 2.692.65 6.167 1.401 9.441zM67.882 48.59l-.006.22c-.433.083-.838.164-1.217.241a26 26 0 01-2.552.397l.003-.019c.006-.014.057-.102.13-.239a74.045 74.045 0 003.642-.6zm-29.08.643a2.063 2.063 0 00-1.013.294c-5.023-.298-11.149-.681-14.838-.631-5.483.072-9.975 1.743-12.639 2.91-2.667 1.166-3.596 1.79-2.652 1.536a17.835 17.835 0 002.745-.967c1.164-.517 3.069-1.459 6.426-2.015 8.11-1.341 11.407-.561 19.531-.006.229.017.465.031.71.045-.34.93-.463 3.224-.504 5.274-.036 1.814-.007 3.458.001 3.846l-6.688.078c-.615-4.592-4.04-8.358-9.238-8.386-5.633-.029-8.474 3.274-8.484 7.672-.057 1.475-.171 2.602-.574 3.575-.116.274-.253.227-.253.227-3.343-.26-6.555-1.729-8.549-3.402.288.021.606.032.941.029 1.35-.01.523-1.435-.135-2.243-.66-.809-1.813-.769-2.498-.866-.126-.02-.244-.035-.353-.054v-.051c0-.507 1.847-1.946 6.349-3.534-.13.064-.246.129-.34.191-.678.454-.821.652-.821.652s-1.613.736-2.278 1.06c-.666.326-1.09.852-1.062.95.028.1-.015.142.934-.397.712-.403 4.132-2.261 6.584-3.589 3.344-1.735 7.607-2.922 14.955-2.989 6.438-.057 9.634.323 9.634.323s.399.257 1.471.342c.788.063 1.713.101 2.638.126zm-18.231 1.621c4.922.025 8.252 3.402 9.116 7.659-.864-4.262-4.142-8.13-9.062-8.156-5.385-.028-8.274 3.456-8.519 7.588.243-4.103 3.082-7.121 8.465-7.091zm41.671-3.169l1.608.025-.933-.712c-.188.208-.388.414-.6.617l-.075.07zm17.173 3.034c5.933 0 8.692 2.608 9.091 5.835-.398-3.227-3.095-6.196-9.027-6.196-5.375 0-8.342 3.123-8.646 5.912.302-2.766 3.209-5.551 8.582-5.551zm-13.116-7.527l.154-.53s-6.135-.499-9.017-.464l.389.017c3.535.176 7.513.718 7.513.718l.865.112-.035.12c-.2-.024-.66-.077-1.662-.184-1.225-.153-4.027-.478-6.688-.609-2.954-.148-4.679 0-4.679 0s-2.176 1.501-4.082 3.036c-1.685 1.358-4.695 3.931-4.695 3.931s11.061-.083 11.959-.083c3.567 0 4.466-.401 5.891-1.754 1.765-1.678 2.629-3.68 2.856-4.268l.152.02c.117.014.246.029.386.043l-.086.279-.327-.251c-.071.179-.168.408-.286.663l.48.008-.126.394-.401-.306a10.1 10.1 0 01-.267.527l-.035.064.605.01-.158.468-.502-.382c-.113.203-.242.418-.385.64l.791.013c-.069.195-.14.387-.21.574l-.642-.491c-.142.216-.295.438-.462.661l1.032.017c-.098.248-.192.486-.287.706l-.817-.625c-.162.211-.335.425-.521.636l1.322.021a7.611 7.611 0 01-.35.71c-.235.417-.46.745-.719 1.001l-.189-.144c0-.167-.122-.291-.277-.291a.322.322 0 00-.087.013l-.565-.431c-.896.822-1.634 1.267-3.003 1.477l.052-.001c1.729-.019 2.836-.059 3.584-.16.114-.065.228-.138.34-.22.389-.285.685-.682 1.001-1.244.549-.971 1.2-2.934 1.625-4.321l.375.038c-.348 1.153-1.043 3.442-1.373 4.387l-.508.003a4.92 4.92 0 01-.964 1.212c-.324.301-.686.347-1.007.463a11.9 11.9 0 001.063-.103c.225-.028.47-.061.73-.095-.067.126-.118.217-.137.252-1.673.165-2.725.106-2.725.106s-15.016.418-20.345.128a572.41 572.41 0 01-2.868-.165 2.346 2.346 0 011.195-.291 2.708 2.708 0 00-.094-.01c2.245.052 4.388.017 4.388.017s2.168-1.813 4.48-3.583c2.312-1.77 4.331-3.169 4.331-3.169s.203-.149.168-.233c-.026-.068-.459-.286-1.631-.38 1.186-.306 3.84-.709 8.962-.303 3.065.244 5.147.461 6.543.632.146.114.28.239.381.378a.56.56 0 01.043.071l.136.023c-.067-.145-.229-.309-.399-.451 1.93.241 2.456.39 2.456.39l.129.13c.726.042 2.24.138 2.815.226.188.028.538.116.981.68.693.053 1.445.119 1.808.174.177.028.497.107.902.585.727.056 1.543.126 1.925.184.173.026.482.103.876.553.703.054 1.476.121 1.841.177.181.028.506.107.919.603l.027.007c.664.053 1.366.114 1.711.167.172.026.478.102.867.543.712.054 1.501.122 1.875.179.185.029.525.113.959.652 4.367 1.229 7.16 1.869 10.994 2.765.73.171 1.317-.261 1.426.028.043.107.005.83-.2 1.859.167.005.279.143.254.311l-.245 1.581a.378.378 0 01-.36.311h-.251c-.369 1.055-.893 2.187-1.618 3.227a9.415 9.415 0 01-2.311 2.298h2.773c.171 0 .257.14.189.31l-.229.588a.51.51 0 01-.433.31h-4.71c-.724.243-1.494.4-2.304.458-.793.057-.649-.142-.649-.142l-.395-4.444c-.398-3.227-3.158-5.837-9.091-5.837-5.556 0-8.475 2.979-8.605 5.836l-.064 2.167-1.313.016c-.758-3.286-1.364-6.774-1.405-9.46.642-.083.461-.037.84-.124.555-.129 5.203-.518 10.436-.647 5.232-.128 13.897 1.307 15.258 1.371s-.114-.467-3.071-1.216c-2.954-.749-4.753-.965-10.801-1.279-4.873-.253-9.45.405-12.654 1.009l.005-.222a64.63 64.63 0 002.995-.651c1.553-.379-1.646-.254-2.755-.221l-.213.005c.08-2.282.215-4.788.215-4.788l-.169-.02s-.125 2.522-.202 4.812c-.756.016-1.996.028-3.006.038.356-1.043 1.077-3.47 1.397-4.546zm-3.678 5.284a.17.17 0 01.17-.172.17.17 0 01.171.172c0 .094-.074.17-.171.17a.17.17 0 01-.17-.17zm-1.331.12h1.25c.041.083.12.142.216.154H61.29c-.104 0-.104-.154 0-.154zm.792-1.491l-.129.125c-1.329 1.263-2.12 1.653-5.632 1.653-.73 0-8.172.054-10.937.075.269-.229.591-.502.943-.797 1.352-.136 3.987-.351 8.226-.431 4.874-.092 6.818-.436 7.529-.625zm-4.282-4.36c2.766.136 5.69.483 6.809.626a12.256 12.256 0 01-1.7 2.82c-.938-.058-4.232-.248-7.789-.347-3.742-.105-5.959.486-7.084.885.451-.375.885-.732 1.255-1.031 1.677-1.35 3.565-2.674 3.979-2.963.399-.027 2.012-.116 4.53.01zm-18.069 6.041c1.624.027 3.089.012 3.567.006.28-.234 1-.828 1.932-1.577-2.379.026-4.437.655-5.499 1.571zm-2.606-.083c.247.014.504.025.763.035 2.796-1.362 7.583-3.674 9.852-4.572.843-.333 2.186-.969 3.717-1.73a8.354 8.354 0 00-.556-.07c-.843.337-1.646.657-2.342.933l-3.666 1.58c-2.614 1.223-5.873 2.865-7.768 3.824zm14.65-6.301c-.642.452-2.259 1.603-4.052 2.975a147.264 147.264 0 00-4.391 3.508c-.777.012-4.829.061-7.327-.136a7.166 7.166 0 01-.972-.129l14.849-6.399c.902.014 1.5.093 1.872.176l.021.005z"></path></g><!----></svg>