<svg data-v-423bf9ae="" xmlns="http://www.w3.org/2000/svg" viewBox="0 0 226.16191399399528 60" class="font"><!----><!----><!----><g data-v-423bf9ae="" id="84d69754-8026-4926-85fd-24ad50b783df" fill="black" transform="matrix(4.83605233626814,0,0,4.83605233626814,7.468249645787225,-2.2831260065599324)"><path d="M2.56 7.89Q2.45 7.90 1.55 7.84L1.55 7.84Q1.96 6.63 2.42 5.57L2.42 5.57Q2.58 5.18 3.13 3.95L3.13 3.95Q3.11 4.61 2.93 7.85L2.93 7.85Q2.75 7.87 2.56 7.89L2.56 7.89ZM4.37 1.18Q4.18 1.09 3.80 1.16L3.80 1.16Q3.16 1.27 2.95 1.55L2.95 1.55Q2.75 1.80 1.97 3.58L1.97 3.58Q1.83 3.90 1.47 4.70L1.47 4.70Q1.16 5.42 0.98 5.83L0.98 5.83Q0.56 6.79 0.18 7.86L0.18 7.86Q-0.74 7.97-1.39 8.37L-1.39 8.37Q-1.57 8.48-1.54 8.58L-1.54 8.58Q-1.51 8.67-1.31 8.68L-1.31 8.68Q-0.79 8.70-0.31 8.43L-0.31 8.43Q-0.17 8.41-0.12 8.41L-0.12 8.41Q-0.06 8.41 0 8.41L0 8.41Q-0.32 9.39-0.64 10.53L-0.64 10.53Q-0.71 10.79-0.05 10.67L-0.05 10.67Q0.25 10.62 0.50 10.49L0.50 10.49Q0.77 10.37 0.80 10.27L0.80 10.27Q1.07 9.32 1.34 8.48L1.34 8.48Q1.63 8.50 1.83 8.47L1.83 8.47Q2.54 8.39 2.89 8.46L2.89 8.46Q2.78 10.55 2.78 12.02L2.78 12.02Q2.78 12.10 3.01 12.11L3.01 12.11Q3.23 12.12 3.51 12.06L3.51 12.06Q4.25 11.91 4.25 11.62L4.25 11.62Q4.25 9.90 4.45 6.45L4.45 6.45Q4.65 3.00 4.65 1.27L4.65 1.27Q4.65 1.18 4.37 1.18L4.37 1.18ZM10.91 1.54Q10.61 1.59 10.36 1.71L10.36 1.71Q10.07 1.85 10.06 1.93L10.06 1.93Q9.80 3.23 8.56 4.91L8.56 4.91Q7.89 5.82 6.89 6.87L6.89 6.87Q6.99 6.31 7.03 6.09L7.03 6.09Q7.55 3.42 8.37 2.26L8.37 2.26Q8.47 2.12 8.16 2.11L8.16 2.11Q7.94 2.09 7.79 2.12L7.79 2.12Q7.13 2.24 6.93 2.52L6.93 2.52Q6.11 3.68 5.58 6.43L5.58 6.43Q5.19 8.43 5.18 8.47L5.18 8.47Q4.70 10.61 4.69 10.85L4.69 10.85Q4.68 10.92 4.91 10.93L4.91 10.93Q5.12 10.94 5.40 10.88L5.40 10.88Q6.13 10.75 6.15 10.45L6.15 10.45Q6.17 10.17 6.62 8.22L6.62 8.22Q6.95 8.85 7.21 9.69L7.21 9.69Q7.62 10.97 7.60 12.02L7.60 12.02Q7.60 12.11 7.83 12.11L7.83 12.11Q8.05 12.13 8.33 12.07L8.33 12.07Q9.06 11.92 9.06 11.63L9.06 11.63Q9.08 10.62 8.67 9.30L8.67 9.30Q8.29 8.07 7.72 7.25L7.72 7.25Q9.05 5.91 9.95 4.72L9.95 4.72Q11.23 3.01 11.49 1.67L11.49 1.67Q11.55 1.42 10.91 1.54L10.91 1.54ZM15.05 3.48Q15.00 1.70 14.16 1.01L14.16 1.01Q13.69 0.64 12.80 0.68L12.80 0.68Q11.80 0.72 10.55 1.40L10.55 1.40Q10.36 1.50 10.40 1.60L10.40 1.60Q10.43 1.70 10.63 1.71L10.63 1.71Q11.13 1.72 11.66 1.44L11.66 1.44Q11.68 1.43 11.70 1.42L11.70 1.42Q11.74 1.39 11.82 1.35L11.82 1.35Q11.86 1.34 11.94 1.31L11.94 1.31Q11.96 1.29 12.07 1.26L12.07 1.26L12.08 1.26Q12.09 1.25 12.09 1.26L12.09 1.26Q12.09 1.25 12.11 1.25L12.11 1.25Q12.15 1.25 12.19 1.26L12.19 1.26Q12.20 1.26 12.22 1.26L12.22 1.26Q12.26 1.26 12.26 1.26L12.26 1.26Q12.35 1.28 12.45 1.31L12.45 1.31Q12.46 1.31 12.46 1.31L12.46 1.31Q12.46 1.31 12.46 1.31L12.46 1.31Q12.49 1.33 12.54 1.35L12.54 1.35Q12.59 1.37 12.67 1.43L12.67 1.43Q12.80 1.51 12.93 1.65L12.93 1.65Q13.13 1.85 13.29 2.23L13.29 2.23Q13.88 3.66 13.35 6.11L13.35 6.11Q13.00 7.70 12.29 8.97L12.29 8.97Q11.94 9.60 11.53 10.03L11.53 10.03Q11.35 10.22 11.14 10.39L11.14 10.39Q12.23 5.68 12.69 1.78L12.69 1.78Q12.70 1.71 12.48 1.70L12.48 1.70Q12.26 1.69 11.99 1.74L11.99 1.74Q11.27 1.87 11.23 2.17L11.23 2.17Q10.76 6.19 9.58 11.16L9.58 11.16Q9.52 11.42 10.17 11.30L10.17 11.30Q10.47 11.25 10.72 11.12L10.72 11.12Q10.92 11.03 10.98 10.97L10.98 10.97Q11.25 10.93 11.63 10.77L11.63 10.77Q13.19 10.12 14.18 7.78L14.18 7.78Q15.09 5.63 15.05 3.48L15.05 3.48ZM18.52 5.31Q18.37 6.24 17.47 7.18L17.47 7.18Q17.28 7.38 17.04 7.58L17.04 7.58Q16.98 7.63 16.92 7.68L16.92 7.68Q16.70 7.59 16.45 7.58L16.45 7.58Q17.01 4.74 17.15 2.66L17.15 2.66Q17.42 2.80 17.66 2.99L17.66 2.99Q18.17 3.39 18.40 4.03L18.40 4.03Q18.63 4.65 18.52 5.31L18.52 5.31ZM15.54 2.40Q15.54 2.40 15.56 2.39L15.56 2.39Q15.55 2.40 15.54 2.40L15.54 2.40ZM20.48 11.42Q19.75 10.88 18.22 8.99L18.22 8.99Q17.55 8.17 17.43 8.05L17.43 8.05Q17.89 7.84 18.32 7.50L18.32 7.50Q19.52 6.56 19.88 5.41L19.88 5.41Q20.13 4.60 19.92 3.84L19.92 3.84Q19.71 3.07 19.09 2.53L19.09 2.53Q17.84 1.46 15.77 1.88L15.77 1.88Q15.64 1.91 15.44 1.96L15.44 1.96Q14.70 2.14 14.77 2.37L14.77 2.37Q14.83 2.58 15.54 2.40L15.54 2.40Q15.61 2.39 15.65 2.38L15.65 2.38Q15.70 2.37 15.73 2.37L15.73 2.37Q15.61 5.11 14.38 10.79L14.38 10.79Q14.32 11.04 14.96 10.92L14.96 10.92Q15.26 10.87 15.52 10.75L15.52 10.75Q15.80 10.62 15.82 10.53L15.82 10.53Q16.11 9.17 16.21 8.72L16.21 8.72Q16.21 8.72 16.21 8.72L16.21 8.72Q16.22 8.72 16.22 8.72L16.22 8.72Q16.33 8.85 17.01 9.70L17.01 9.70Q18.33 11.34 19.10 11.92L19.10 11.92Q19.33 12.09 20.04 11.83L20.04 11.83Q20.23 11.76 20.37 11.67L20.37 11.67Q20.62 11.52 20.48 11.42L20.48 11.42ZM21.36 7.05Q21.44 6.66 21.53 6.31L21.53 6.31Q21.72 5.80 21.99 5.24L21.99 5.24Q22.12 4.99 22.29 4.76L22.29 4.76Q22.34 4.68 22.42 4.59L22.42 4.59Q22.40 4.61 22.44 4.57L22.44 4.57Q22.47 4.59 22.51 4.61L22.51 4.61Q22.78 4.82 22.85 5.46L22.85 5.46Q22.92 6.01 22.67 6.95L22.67 6.95Q21.88 6.97 21.36 7.05L21.36 7.05ZM21.12 10.48Q21.12 10.48 21.12 10.48L21.12 10.48Q21.12 10.48 21.10 10.49L21.10 10.49Q21.12 10.49 21.12 10.48L21.12 10.48ZM22.62 4.42L22.62 4.42Q22.63 4.42 22.63 4.41L22.63 4.41Q22.63 4.42 22.62 4.42L22.62 4.42ZM24.31 5.11Q24.27 4.50 23.93 4.17L23.93 4.17Q23.56 3.80 22.59 3.98L22.59 3.98Q21.68 4.14 21.14 4.68L21.14 4.68Q20.77 5.04 20.47 5.69L20.47 5.69Q20.02 6.49 19.78 8.04L19.78 8.04Q19.65 8.93 19.65 9.63L19.65 9.63Q19.65 10.77 20.36 10.94L20.36 10.94Q20.83 11.06 21.66 10.78L21.66 10.78Q22.16 10.62 22.63 10.23L22.63 10.23Q23.43 9.57 23.58 8.68L23.58 8.68Q23.63 8.44 23.00 8.54L23.00 8.54Q22.70 8.60 22.45 8.72L22.45 8.72Q22.16 8.85 22.15 8.94L22.15 8.94Q22.05 9.50 21.63 10.04L21.63 10.04Q21.53 10.15 21.38 10.28L21.38 10.28Q21.25 10.17 21.17 9.85L21.17 9.85Q21.08 9.51 21.12 8.76L21.12 8.76Q21.16 8.08 21.27 7.53L21.27 7.53Q21.57 7.50 22.11 7.50L22.11 7.50Q22.80 7.51 22.95 7.50L22.95 7.50Q23.18 7.49 23.52 7.38L23.52 7.38Q23.93 7.22 23.98 7.08L23.98 7.08Q24.38 5.92 24.31 5.11L24.31 5.11ZM29.26 4.50Q29.20 4.33 28.67 4.44L28.67 4.44Q27.47 4.66 26.65 5.45L26.65 5.45Q26.46 5.63 26.29 5.84L26.29 5.84Q26.52 4.81 26.64 4.05L26.64 4.05Q26.65 3.92 26.27 3.96L26.27 3.96Q26.02 3.98 25.85 4.03L25.85 4.03Q25.21 4.20 25.18 4.44L25.18 4.44Q25.05 5.31 24.49 7.64L24.49 7.64Q24.00 9.64 23.91 10.86L23.91 10.86Q23.90 11.04 24.59 10.89L24.59 10.89Q25.29 10.75 25.36 10.53L25.36 10.53Q26.22 8.17 26.69 7.23L26.69 7.23Q27.19 6.24 27.67 5.65L27.67 5.65Q27.79 5.50 27.95 5.36L27.95 5.36Q28.16 6.30 27.76 8.51L27.76 8.51Q27.21 11.60 26.90 12.71L26.90 12.71Q26.83 12.96 27.49 12.84L27.49 12.84Q27.79 12.78 28.04 12.67L28.04 12.67Q28.32 12.54 28.34 12.45L28.34 12.45Q28.65 11.34 29.22 8.18L29.22 8.18Q29.42 7.02 29.47 6.25L29.47 6.25Q29.53 5.17 29.26 4.50L29.26 4.50ZM33.52 4.08Q32.97 4.06 32.20 4.06L32.20 4.06Q32.47 3.21 32.85 2.17L32.85 2.17Q32.95 1.92 32.27 2.04L32.27 2.04Q31.51 2.18 31.41 2.44L31.41 2.44Q31.09 3.32 30.84 4.08L30.84 4.08Q30.64 4.08 30.49 4.08L30.49 4.08Q29.90 4.08 29.46 4.36L29.46 4.36Q29.28 4.47 29.30 4.57L29.30 4.57Q29.33 4.67 29.54 4.67L29.54 4.67Q29.85 4.67 30.67 4.66L30.67 4.66Q30.34 5.76 30.16 6.75L30.16 6.75Q30.10 7.12 30.01 7.70L30.01 7.70Q29.90 8.47 29.87 8.65L29.87 8.65Q29.70 9.73 29.99 10.40L29.99 10.40Q30.26 11.02 30.83 11.02L30.83 11.02Q31.86 11.01 32.51 10.36L32.51 10.36Q33.37 9.47 33.52 8.22L33.52 8.22Q33.53 8.16 33.30 8.15L33.30 8.15Q33.09 8.13 32.81 8.19L32.81 8.19Q32.09 8.32 32.05 8.61L32.05 8.61Q31.97 9.32 31.47 10.09L31.47 10.09Q31.32 9.79 31.27 9.34L31.27 9.34Q31.22 8.91 31.41 7.82L31.41 7.82Q31.44 7.63 31.55 6.88L31.55 6.88Q31.64 6.30 31.72 5.93L31.72 5.93Q31.85 5.32 32.03 4.66L32.03 4.66Q32.34 4.66 32.57 4.67L32.57 4.67Q33.11 4.70 33.60 4.40L33.60 4.40Q33.78 4.29 33.75 4.19L33.75 4.19Q33.72 4.09 33.52 4.08L33.52 4.08ZM35.36 9.01Q34.90 9.63 34.78 9.78L34.78 9.78Q34.74 9.69 34.71 9.60L34.71 9.60Q34.49 8.99 34.64 7.95L34.64 7.95Q34.75 7.14 35.16 6.16L35.16 6.16Q35.31 5.80 35.51 5.44L35.51 5.44Q35.64 5.22 35.81 5.04L35.81 5.04Q35.97 4.88 36.21 4.70L36.21 4.70Q36.22 4.69 36.22 4.68L36.22 4.68Q36.24 4.68 36.26 4.66L36.26 4.66Q36.31 4.63 36.38 4.58L36.38 4.58Q36.38 4.58 36.39 4.57L36.39 4.57Q36.59 4.74 36.56 5.37L36.56 5.37Q36.55 5.48 36.98 5.44L36.98 5.44Q36.87 5.98 36.65 6.88L36.65 6.88Q36.28 7.77 35.36 9.01L35.36 9.01ZM38.48 4.85Q38.48 4.72 38.02 4.77L38.02 4.77Q38.00 4.17 37.63 4.01L37.63 4.01Q37.05 3.75 36.02 4.17L36.02 4.17Q34.60 4.74 34.01 5.81L34.01 5.81Q33.07 7.56 33.13 9.26L33.13 9.26Q33.15 10.25 33.64 10.56L33.64 10.56Q33.87 10.71 34.47 10.63L34.47 10.63Q35.03 10.55 35.50 10.22L35.50 10.22Q35.77 10.04 36.04 9.75L36.04 9.75Q35.96 10.31 35.92 10.81L35.92 10.81Q35.92 10.88 36.14 10.90L36.14 10.90Q36.35 10.90 36.63 10.85L36.63 10.85Q37.36 10.71 37.38 10.42L37.38 10.42Q37.46 9.17 38.08 6.64L38.08 6.64Q38.45 5.73 38.48 4.85L38.48 4.85ZM40.07 0.91Q39.36 2.82 38.79 5.84L38.79 5.84Q37.88 10.69 37.85 10.86L37.85 10.86Q37.80 11.10 38.44 10.99L38.44 10.99Q38.74 10.93 38.99 10.81L38.99 10.81Q39.27 10.68 39.29 10.60L39.29 10.60Q41.58 0.48 41.51 0.65L41.51 0.65Q41.61 0.39 40.93 0.51L40.93 0.51Q40.17 0.65 40.07 0.91L40.07 0.91ZM44.69 6.07Q45.25 5.29 45.22 4.73L45.22 4.73Q45.21 4.34 44.77 4.14L44.77 4.14Q44.45 3.99 44.00 3.97L44.00 3.97Q43.03 3.93 42.27 4.44L42.27 4.44Q41.43 4.98 41.34 5.89L41.34 5.89Q41.27 6.45 41.70 7.12L41.70 7.12Q41.84 7.33 42.10 7.66L42.10 7.66Q42.42 8.05 42.50 8.17L42.50 8.17Q43.61 9.73 42.83 10.41L42.83 10.41Q42.75 10.48 42.63 10.53L42.63 10.53Q42.73 10.49 42.85 10.47L42.85 10.47Q42.92 10.45 42.83 10.45L42.83 10.45Q42.55 10.43 42.20 10.16L42.20 10.16Q41.86 9.91 41.80 9.52L41.80 9.52Q41.74 9.15 41.95 8.79L41.95 8.79Q42.03 8.65 41.73 8.63L41.73 8.63Q41.54 8.63 41.37 8.66L41.37 8.66Q40.67 8.78 40.51 9.05L40.51 9.05Q40.08 9.79 40.57 10.40L40.57 10.40Q41.03 10.98 41.94 11.04L41.94 11.04Q43.06 11.12 44.11 10.33L44.11 10.33Q44.68 9.90 44.64 9.21L44.64 9.21Q44.60 8.74 44.13 8.02L44.13 8.02Q44.16 8.07 43.29 6.88L43.29 6.88Q42.84 6.26 42.79 5.78L42.79 5.78Q42.72 5.07 43.24 4.58L43.24 4.58Q43.29 4.53 43.30 4.52L43.30 4.52Q43.35 4.48 43.35 4.48L43.35 4.48Q43.37 4.47 43.39 4.46L43.39 4.46Q43.25 4.53 43.10 4.55L43.10 4.55Q42.96 4.57 43.09 4.55L43.09 4.55Q42.99 4.56 43.10 4.56L43.10 4.56Q43.54 4.58 43.71 4.93L43.71 4.93Q43.93 5.38 43.25 6.33L43.25 6.33Q43.16 6.47 43.47 6.48L43.47 6.48Q43.69 6.49 43.83 6.47L43.83 6.47Q44.50 6.34 44.69 6.07L44.69 6.07Z"></path></g><!----><!----></svg>